<svg width="31" height="31" viewBox="0 0 31 31" fill="none" xmlns="http://www.w3.org/2000/svg">
<path d="M25.636 3.8147e-05H4.61675C2.06806 3.8147e-05 0 2.11803 0 4.73409V25.5446C0 28.1366 2.02716 30.2414 4.54757 30.2787L25.621 30.2793C28.1697 30.2793 30.2426 28.1607 30.2426 25.5446L30.2528 4.73409C30.2528 2.11803 28.1841 3.8147e-05 25.636 3.8147e-05ZM7.11491 27.8533L5.96779 27.8672C4.57885 27.8672 3.4576 26.7236 3.4576 25.3185L3.44918 25.1158V5.89805L3.4576 4.86221C3.51354 3.50275 4.54517 2.40436 5.89861 2.40436H8.22834C10.3439 2.40436 12.0547 4.24203 12.0547 6.40634C12.0547 7.48128 11.6336 8.45155 10.9527 9.16075L5.00774 15.1905L10.5821 20.8689C11.298 21.6112 11.7311 22.5851 11.7311 23.6492C11.7311 25.9705 9.6684 27.8533 7.11491 27.8533ZM24.2525 27.8359L13.8587 27.8329C13.8587 27.8329 15.0605 25.2331 15.0605 23.6264C15.0605 21.6672 14.4055 19.9137 13.3799 18.7564L9.82661 15.1315L13.4502 11.3864C14.5348 10.3674 15.2506 8.56463 15.2506 6.51401C15.2506 4.88928 14.8019 3.44982 14.0752 2.40436H16.595C18.7088 2.40436 20.4214 4.24203 20.4214 6.40634C20.4214 7.48128 20.0021 8.45155 19.323 9.16075L13.4881 15.1291L25.603 27.484C25.2168 27.7258 24.7343 27.8359 24.2525 27.8359ZM26.788 23.9771L18.1049 15.1273L22.2398 10.9262C23.0825 9.87056 23.6191 8.28552 23.6191 6.51401C23.6191 4.87965 23.1619 3.40229 22.4323 2.35744L24.2808 2.41518C25.6673 2.41518 26.7952 3.55509 26.7952 4.96447L26.788 23.9771Z" fill="white"/>
</svg>
