<svg width="187" height="155" viewBox="0 0 187 155" fill="none" xmlns="http://www.w3.org/2000/svg">
<path d="M156.623 20.5179C167.181 23.0508 176.641 29.3506 181.197 38.6075C185.934 48.2378 185.191 59.3314 181.841 69.2138L181.509 70.1658C177.396 81.6299 169.285 90.7589 160.056 99.294C148.419 110.05 135.349 119.519 121.494 127.746C104.654 137.744 86.2613 146.075 66.9605 151.606L60.5646 153.318L55.9449 148.225L55.9458 148.225L54.5843 146.709L54.5797 146.703L50.6025 142.332C41.3191 132.146 32.0542 122.022 23.9135 111.128C6.71937 88.1236 -4.59875 59.6381 5.03458 33.1696C8.81887 22.7707 16.9754 13.15 27.2687 7.30209C37.5404 1.4665 49.8562 -0.570592 62.0426 4.01283L62.0435 4.01309C74.0703 8.53078 82.903 18.2544 86.2866 29.7692L86.2873 29.7704C88.0644 35.7996 88.9894 42.1889 89.3382 48.525L89.587 53.0414L92.0862 49.272C93.5017 47.137 95.0266 45.0675 96.6611 43.0642C110.379 26.2688 133.376 14.9407 156.623 20.5179Z" stroke="white" stroke-width="3"/>
</svg>
