<svg width="62" height="14" viewBox="0 0 62 14" fill="none" xmlns="http://www.w3.org/2000/svg">
<path fill-rule="evenodd" clip-rule="evenodd" d="M34.9114 1.11499C32.9864 2.26086 28.4459 4.9378 26.7509 5.93468C25.7179 6.47565 23.3254 6.71187 21.9722 4.83622C21.948 4.80236 20.1724 2.52172 20.0999 2.43585C20.049 2.37517 18.9011 0.624946 16.3434 0.570226C15.9655 0.561015 14.0866 0.550722 12.2533 1.62182C9.81647 3.05294 4.14916 6.38355 4.14916 6.38355C4.14916 6.38355 4.14758 6.38653 4.14468 6.38653C1.81514 7.7567 0 8.82346 0 8.82346L2.14455 11.531C3.14778 12.8115 5.41012 13.8022 7.37204 12.6444C7.37204 12.6444 14.6213 8.32909 14.6479 8.31663C17.783 6.54906 20.2022 6.54906 21.8078 7.20679C23.249 7.83282 24.5028 9.39261 24.5028 9.39261C24.5028 9.39261 26.1414 11.4801 26.4305 11.8453C27.3628 13.025 28.906 12.5615 28.906 12.5615C28.906 12.5615 29.4779 12.4949 30.3399 11.9688C30.3399 11.9688 37.3617 7.78351 37.3662 7.78216C39.5958 6.43746 41.6408 6.18634 42.6859 6.28521C45.9594 6.59105 46.9763 8.94184 48.3956 10.5818C49.2315 11.5465 49.9857 12.0942 51.1392 12.0666C51.897 12.05 52.7532 11.5776 52.8795 11.4923L61.2879 6.5041C61.2879 6.5041 60.4252 5.16833 58.6582 3.09005C57.0768 1.23581 55.3971 2.07475 54.0579 2.75659C53.4953 3.04265 51.4567 4.43665 49.4371 5.40915C47.998 6.10182 45.9309 5.89351 44.798 4.45453C44.7303 4.36704 42.8975 2.08613 42.7049 1.80549C41.9651 0.853036 40.5218 0 38.6722 0C37.5475 0 36.2712 0.315317 34.9114 1.11499Z" fill="url(#paint0_linear_1_409)"/>
<defs>
<linearGradient id="paint0_linear_1_409" x1="0" y1="13.1571" x2="61.2879" y2="13.1571" gradientUnits="userSpaceOnUse">
<stop stop-color="#FFCA06"/>
<stop offset="0.330844" stop-color="#FBAA18"/>
<stop offset="0.694742" stop-color="#FFC907"/>
<stop offset="1" stop-color="#FAA619"/>
</linearGradient>
</defs>
</svg>
