<svg width="48" height="48" viewBox="0 0 48 48" fill="none" xmlns="http://www.w3.org/2000/svg">
<rect x="0.5" y="0.5" width="47" height="47" rx="23.5" fill="white"/>
<rect x="0.5" y="0.5" width="47" height="47" rx="23.5" stroke="#E6E6E6"/>
<g clip-path="url(#clip0_74_446)">
<path d="M18 32C19.6569 32 21 30.6569 21 29C21 27.3431 19.6569 26 18 26C16.3431 26 15 27.3431 15 29C15 30.6569 16.3431 32 18 32Z" stroke="#9D9D9D" stroke-width="2" stroke-linecap="round" stroke-linejoin="round"/>
<path d="M26.4201 26.45C26.0353 26.6886 25.7096 27.0112 25.4673 27.3937C25.225 27.7761 25.0724 28.2084 25.0209 28.6582C24.9694 29.108 25.0204 29.5636 25.1701 29.9909C25.3197 30.4182 25.5642 30.8061 25.885 31.1255C26.2059 31.4449 26.5949 31.6875 27.0229 31.8352C27.4508 31.9829 27.9067 32.0318 28.3562 31.9782C28.8058 31.9247 29.2374 31.7701 29.6187 31.526C30.0001 31.282 30.3212 30.9548 30.5581 30.569" stroke="#9D9D9D" stroke-width="2" stroke-linecap="round" stroke-linejoin="round"/>
<path d="M21 17V16H31V27M21 29V21V29Z" stroke="#9D9D9D" stroke-width="2" stroke-linecap="round" stroke-linejoin="round"/>
<path d="M24 20H31" stroke="#9D9D9D" stroke-width="2" stroke-linecap="round" stroke-linejoin="round"/>
<path d="M15 15L33 33" stroke="#9D9D9D" stroke-width="2" stroke-linecap="round" stroke-linejoin="round"/>
</g>
<defs>
<clipPath id="clip0_74_446">
<rect width="24" height="24" fill="white" transform="translate(12 12)"/>
</clipPath>
</defs>
</svg>
